# xmcd
#
# Track frame offsets:
#	150
#	12978
#	25416
#	35792
#	48098
#	57440
#	67240
#	78674
#	90749
#	101598
#	113116
#	125526
#	136321
#	146900
#	157904
#	169256
#	181231
#	191426
#	202254
#	213626
#	225909
#	237365
#	248829
#	261737
#	272236
#	281967
#	291170
#	301024
#	310986
#	320246
#	330156
#	341292
#
# Disc length: 4688 seconds
#
# Revision: 0
# Processed by: cddbd v1.5.2PL0 Copyright (c) Steve Scherf et al.
# Submitted via: EasyCDDAExtractor 15.3.0.1
#
DISCID=ed124e20
DTITLE=Inman Autry - Stars Of Decca Hillbilly
DYEAR=1900
DGENRE=
TTITLE0=Let's Take The Long Way Home
TTITLE1=I Hope Tomorrow Never Comes
TTITLE2=Who Do You Love
TTITLE3=Just Smile As You Go By
TTITLE4=Does Your Sweetheart Seem Different Lately
TTITLE5=All Of A Sudden
TTITLE6=Stop Stallin'
TTITLE7=I'll Miss My Heart
TTITLE8=Uh Huh Honey
TTITLE9=That's All Right
TTITLE10=Pucker Up
TTITLE11=That's When I Need You The Most
TTITLE12=Brown Eyed Baby
TTITLE13=Dear John Letter
TTITLE14=Happy Go Lucky
TTITLE15=It Hurts Too Much To Cry
TTITLE16=Just Reminiscing
TTITLE17=Under The Moon
TTITLE18=Little One
TTITLE19=Once More
TTITLE20=Don't Put It Off
TTITLE21=Finally I'm Free
TTITLE22=You Said Goodbye
TTITLE23=It's A Shame
TTITLE24=Tell Me Now
TTITLE25=Friend
TTITLE26=Blue Monday
TTITLE27=Look Over Your Shoulder
TTITLE28=It Would Be A Doggone Lie
TTITLE29=Be Bop Baby
TTITLE30=Your New Love Song
TTITLE31=Reality
EXTD=
EXTT0=
EXTT1=
EXTT2=
EXTT3=
EXTT4=
EXTT5=
EXTT6=
EXTT7=
EXTT8=
EXTT9=
EXTT10=
EXTT11=
EXTT12=
EXTT13=
EXTT14=
EXTT15=
EXTT16=
EXTT17=
EXTT18=
EXTT19=
EXTT20=
EXTT21=
EXTT22=
EXTT23=
EXTT24=
EXTT25=
EXTT26=
EXTT27=
EXTT28=
EXTT29=
EXTT30=
EXTT31=
PLAYORDER=
